<svg width="97" height="61" viewBox="0 0 97 61" fill="none" xmlns="http://www.w3.org/2000/svg">
<g clip-path="url(#clip0_1944_53967)">
<path d="M45.9594 42.4241L39.4787 45.5821L37.4572 44.0329L37.695 46.6546L31.8089 49.2764V49.336L25.6255 52.1365L25.1498 52.0769L24.1985 53.0302L17.7773 56.0095L7.61035 56.7245L3.38898 53.5069L0 14.8363L3.74572 10.7845L12.9019 15.8492L16.5882 18.5902L17.0044 19.0072L22.7716 22.1652L27.4091 18.5306L30.263 20.6756L29.8468 16.028L37.2788 10.3079V10.2483L40.0732 8.10321L45.9594 13.4063L46.0188 14.1213L50.6564 18.2922L54.4615 16.6239L55.3534 18.8285L55.7696 16.0876L63.261 12.7508L63.3205 13.7638L65.4014 11.4995L73.8441 8.22238L75.1522 9.17574L76.4602 6.91151L83.9516 3.75351L84.0111 3.63434L92.0971 0.118835L96.3779 49.6339L85.3191 50.6468L78.7195 48.7401L72.655 46.8334L72.4767 45.3438L70.5741 46.0588L63.7366 44.2712L62.2503 43.1987L61.8935 43.4966L53.9264 40.9941L53.5102 40.1599L53.3913 40.7557L50.7753 40.1599L47.5052 41.7687L47.3268 40.9941L45.9594 42.4241Z" fill="#A41F35"/>
<path d="M52.9156 34.977L50.8347 34.5003L47.8024 35.9899L46.0782 15.9098L50.359 19.7828L53.748 18.2932L57.3154 26.8734L58.1477 28.8993L58.3856 29.4951L58.9207 30.6868L58.7423 29.7931L58.5045 28.8397L58.0288 26.7542L57.1964 16.9227L62.1313 14.7181L64.2122 38.4329L56.1262 35.9303L53.3318 30.0314C53.2724 29.8527 53.1535 29.7335 52.4994 27.9459L52.0832 26.8734L51.6671 25.8009L51.9049 26.7542L52.1427 28.0055C52.5589 29.8527 52.6184 30.0314 52.6184 30.2102L52.9156 34.977ZM23.485 33.6661L25.6849 32.8319L25.3281 28.5418L23.0094 27.8863L23.485 33.6661ZM24.6741 47.1919L19.1447 49.6944L16.5287 20.2595L22.831 23.775L27.4091 20.1999L30.5602 22.5237L31.4521 32.4744L29.3117 34.8578L31.8088 36.7049L32.4034 43.6168L26.874 46.0597L26.1011 37.2412L23.9012 38.1945L24.6741 47.1919ZM68.612 40.1013L65.4608 37.7179L63.4988 15.4927L66.1743 12.6326L73.6657 9.71295L76.8169 12.0368L77.5303 20.4382L71.882 21.6299L71.2875 14.7777L69.266 15.731L71.1091 36.7049L73.309 37.4199L72.7144 30.4485L78.3627 29.2568L79.2546 39.3266L76.579 42.1867L68.612 40.1013ZM86.8649 45.4639L80.9788 43.6763L77.8276 7.74665L83.357 5.36326L84.9623 24.0133L87.0433 23.8346L85.3785 4.4099L90.9079 1.96692L94.8914 47.7281L89.0053 46.0002L87.5189 28.8993L85.438 29.078L86.8649 45.4639ZM7.78866 55.2358L4.6375 52.8524L1.36743 15.3139L4.04294 12.4539L12.1884 16.9227L15.3396 19.2465L16.1719 28.7801L10.5236 29.9718L9.81016 21.5108L7.61029 20.2595L10.1074 48.7411L12.1289 47.5494L11.4155 39.9225L17.0638 38.7308L17.9556 48.8602L15.2801 51.7203L7.78866 55.2358ZM36.268 41.5313L33.1763 39.1479L31.2143 16.6844L36.6247 12.5134L38.5868 34.8578L40.7272 33.6661L38.6462 10.8451L39.9543 9.83213L44.6513 14.0627L46.4944 34.977L43.8783 37.837L36.268 41.5313Z" fill="white"/>
<path d="M37.6352 46.5959L37.4569 44.1529C37.4569 44.1529 36.7434 43.0804 36.6839 42.3058C36.565 41.1737 36.7434 40.0415 37.4569 39.5649C39.0622 38.4328 41.4999 38.7307 44.4132 37.7177C46.9103 36.8835 49.2886 35.0364 52.4397 34.6789C55.7693 34.3214 59.2177 37.1219 64.0931 39.4457C65.9957 40.3991 67.4226 41.0545 68.6117 42.9612C69.7414 44.8679 69.9197 45.4042 69.6819 48.5622C68.7306 57.5595 60.7041 60.36 57.2557 60.6579C53.8072 60.9558 50.0615 60.4792 50.0615 60.4792C50.0615 60.4792 44.5916 60.7771 40.7269 59.5854C36.8623 58.3341 34.603 53.6865 33.5328 52.3756C32.9977 51.6606 30.9762 49.7539 30.9762 49.7539L37.6352 46.5959ZM47.8616 0.000494173C52.8559 -0.4166 53.4505 4.82687 53.4505 4.82687C53.4505 4.82687 53.6883 2.44348 58.0286 1.72846C62.3689 1.01344 64.5093 6.07815 65.1038 7.44861C65.6984 8.81906 66.2335 11.0833 66.2335 11.0833L65.1633 11.6791L62.5472 14.5988C63.2012 21.5702 62.3689 23.894 59.0393 24.7282C56.1855 25.4432 54.2829 23.5365 53.2127 20.4977C53.2721 22.7023 52.5586 25.3241 50.002 25.9795C46.7914 26.8137 44.7699 24.3707 44.1159 22.3448C42.5106 17.578 41.8566 17.1014 41.5593 14.0029C40.6675 1.60929 45.0672 0.298419 47.8616 0.000494173ZM38.2298 9.53408L36.6839 11.1429C36.6839 11.1429 35.7326 13.5263 34.6624 14.8371C35.4948 16.7439 36.565 19.1868 36.8623 22.9407C36.8623 26.5158 34.2463 28.1246 32.0464 27.6479C29.6087 27.1116 28.479 24.9666 27.8845 23.7749C27.2899 22.5832 27.2899 24.907 24.6739 25.5028C22.2362 26.0391 19.6201 24.3111 19.2634 20.2594C18.9066 16.2076 23.3064 14.2413 25.2684 15.7905C24.6739 14.3009 26.6359 11.7387 27.4683 10.6066C28.3007 9.41491 29.6087 6.19732 32.7004 5.78023C35.8516 5.30355 37.1596 8.04446 38.2298 9.53408Z" fill="#A41F35"/>
<path d="M50.7157 9.35402C50.4184 8.81775 50.24 7.74523 50.3589 7.50689C50.5373 7.26855 50.0616 6.43436 50.0616 6.43436L50.6562 6.73228L50.2995 4.88515L51.0724 5.89809C51.0724 5.89809 50.894 4.40847 50.5373 3.81262C51.4291 4.2893 51.7264 5.24266 51.667 5.71934C51.667 6.13643 51.1319 7.56647 50.7157 9.35402ZM61.715 5.54058C62.4285 7.32813 62.0123 9.17526 61.715 10.1882V10.1286C61.6555 10.4265 61.1799 11.6182 60.5259 11.9758C60.5259 11.9758 61.061 10.9032 61.0015 10.7245C60.8826 10.5457 60.407 10.6649 60.407 10.6649C61.061 9.94987 61.1799 8.93692 61.1799 8.04315C61.0015 6.91104 61.3583 5.77892 61.715 5.54058ZM57.1964 23.3565H57.1369C57.018 23.2969 56.8396 23.2373 56.7207 23.1181L56.2451 22.7606C56.1856 22.7606 56.2451 22.8798 56.364 23.0585C55.1749 22.5223 54.4614 21.3306 54.0452 20.0197C53.629 18.7088 53.5695 17.3384 53.3912 16.0871C53.0939 14.0016 52.5588 12.3928 52.5588 12.3928C52.4399 11.9162 51.9642 10.4861 53.5101 6.6727C54.1046 8.40066 55.0559 9.65194 56.6018 9.47319C57.3153 9.35402 57.8504 9.47319 58.2071 9.71153C58.326 9.77111 58.3855 9.8307 58.4449 9.89028C58.3855 10.0095 58.326 10.069 58.326 10.1286C58.326 10.1882 58.4449 10.1286 58.6827 10.1286L58.7422 10.1882C58.6233 10.3074 58.5638 10.4265 58.4449 10.5457L58.326 10.6053C58.326 10.6649 58.5638 10.6053 58.8611 10.5457C58.6827 10.7245 58.5638 10.9032 58.5044 10.9628C58.4449 11.0224 58.6233 11.0224 58.8611 11.0224C58.6827 11.2607 58.5638 11.4395 58.5638 11.4395H58.9206C58.7422 11.6182 58.6233 11.8566 58.5638 11.9162C58.5044 11.9758 58.7422 11.9758 58.98 11.9162C58.8611 12.0949 58.7422 12.3333 58.7422 12.3928C58.7422 12.4524 58.8611 12.3928 59.0989 12.3928C58.9206 12.6312 58.8017 12.9291 58.8017 12.9291C58.8017 12.9291 58.98 12.9291 59.1584 12.8695C59.0395 13.1079 58.9206 13.2866 58.9206 13.4058V13.4654C58.9206 13.4654 59.0395 13.4654 59.2773 13.4058C59.1584 13.6441 59.0989 13.8229 59.0395 13.9421C59.0395 14.0016 59.2178 13.9421 59.4557 13.8825V13.9421C59.2773 14.1804 59.2178 14.3591 59.2178 14.3591H59.3962C59.2773 14.955 59.0989 15.2529 59.0989 15.2529C59.3962 15.2529 59.6935 14.8358 60.2286 15.1338C60.1097 15.2529 60.0502 15.3721 60.0502 15.3721C60.0502 15.3721 60.3475 15.4913 60.5853 15.4913C60.407 15.5508 60.2881 15.67 60.2286 15.7296C60.2286 15.7296 60.5259 15.9084 60.8232 16.0275C60.5853 16.0871 60.407 16.2063 60.3475 16.2063C60.3475 16.2063 60.5853 16.385 60.8826 16.5042C60.7042 16.5638 60.5853 16.6234 60.5259 16.6234C60.4664 16.6234 60.7637 16.8021 61.061 16.9213L60.5853 17.1596C60.5853 17.1596 60.8232 17.3384 61.061 17.4576C60.8826 17.5171 60.7042 17.5767 60.6448 17.5767C60.6448 17.5767 60.8826 17.8151 61.1204 17.9938H60.7637C60.7042 17.9938 60.9421 18.2322 61.1204 18.4705H60.7042C60.6448 18.4705 60.9421 18.7088 61.2988 18.9472C61.0015 18.9472 60.6448 19.0664 60.6448 19.0664C60.6448 19.0664 61.0015 19.4239 61.2988 19.6026H60.6448C60.5853 19.6026 60.9421 19.841 61.2988 20.0793C61.061 20.0793 60.8232 20.0197 60.7042 20.0197L60.5853 19.9601L60.6448 20.0197H60.5853C60.5853 20.0197 60.8826 20.3176 61.2393 20.556C60.9421 20.4964 60.6448 20.4368 60.5259 20.4368C60.5259 20.4368 60.7042 20.7943 60.9421 21.0922C60.7042 20.9731 60.4664 20.8539 60.3475 20.8539L60.2881 20.7943C60.2881 20.7943 60.4664 21.2114 60.7042 21.4498C60.4664 21.3306 60.1691 21.2114 60.0502 21.1518C60.0502 21.1518 60.2286 21.5689 60.407 21.8073C60.1691 21.6881 59.8719 21.5689 59.753 21.5093L59.6935 21.4498C59.6935 21.4498 59.8719 21.8073 60.1097 22.1052C59.8124 21.986 59.5151 21.8668 59.3962 21.8073C59.3368 21.8073 59.634 22.2839 59.9313 22.5223C59.6935 22.4031 59.3368 22.2244 59.1584 22.1648L58.98 22.0456C58.9206 22.0456 59.0989 22.3435 59.3368 22.6414C59.0989 22.5819 58.9206 22.4627 58.7422 22.4031L58.5044 22.2839L58.5638 22.3435C58.4449 22.3435 58.6827 22.701 58.98 22.9394C58.6827 22.8202 58.2666 22.6414 58.0882 22.5819L57.9693 22.5223C57.9098 22.5223 58.2071 22.9394 58.4449 23.2373C58.1476 23.0585 57.7315 22.8202 57.5531 22.7606L57.4936 22.701C57.4936 22.701 57.5531 22.9394 57.7315 23.2373C57.4936 23.1181 57.1369 22.9394 56.9585 22.8798L56.8396 22.8202C56.8396 22.7606 56.9585 23.0585 57.1964 23.3565ZM56.7207 17.1596C57.672 17.0405 58.9206 17.398 59.6935 17.9342C57.8504 15.1338 54.2236 16.6234 54.4614 18.4705C54.4614 18.4705 55.3532 17.398 56.7207 17.1596ZM50.3589 15.0742C49.7644 15.0742 48.9914 15.3721 48.6347 16.1467C49.7644 16.0275 50.5968 16.3254 51.1913 16.9213C51.1319 16.9809 51.1319 17.0405 51.1319 17.0405C51.1319 17.0405 51.2508 17.1001 51.3697 17.1001L51.4886 17.2192C51.3697 17.2788 51.3102 17.3384 51.2508 17.398L51.7264 17.6363L51.7859 17.6959C51.6075 17.7555 51.4886 17.8151 51.3697 17.8747C51.3697 17.8747 51.667 18.0534 51.9642 18.1726C51.7859 18.2322 51.667 18.2918 51.6075 18.2918C51.6075 18.2918 51.8453 18.4705 52.1426 18.5897L51.667 18.828C51.667 18.828 51.9048 19.0068 52.1426 19.1259C51.9642 19.1855 51.7859 19.2451 51.7264 19.3047C51.7264 19.3047 51.9642 19.543 52.2021 19.7218H51.8453C51.7859 19.7218 52.0237 19.9601 52.2021 20.1985H51.7859C51.7264 20.1985 52.0237 20.4368 52.3804 20.6751C52.0831 20.6751 51.7859 20.7943 51.7859 20.7943C51.7859 20.7943 52.1426 21.1518 52.4399 21.3306H51.7859C51.7859 21.3306 52.0831 21.5689 52.4399 21.8073C52.2021 21.8073 52.0237 21.7477 51.8453 21.7477L51.7264 21.6881L51.7859 21.7477H51.7264C51.7264 21.7477 52.0237 22.0456 52.3804 22.2839C52.0831 22.2244 51.7859 22.1648 51.667 22.1648C51.667 22.1648 51.8453 22.5223 52.0831 22.8202C51.8453 22.701 51.6075 22.5819 51.4886 22.5819H51.4291C51.4291 22.5819 51.6075 22.9394 51.8453 23.2373C51.6075 23.1181 51.3102 22.999 51.1319 22.9394C51.1319 22.9394 51.3102 23.3565 51.548 23.5948C51.3102 23.4756 51.0129 23.3565 50.894 23.2969H50.8346C50.8346 23.2969 51.0129 23.6544 51.2508 23.9523C50.9535 23.8331 50.6562 23.714 50.5373 23.6544H50.4778C50.4778 23.6544 50.7157 24.0715 51.0129 24.3694C50.7751 24.2502 50.4778 24.1311 50.24 24.0119L50.1211 23.8331C50.0617 23.8331 50.24 24.1311 50.4778 24.429C50.24 24.3694 50.0617 24.2502 49.8833 24.1907L49.6455 24.0119L49.7049 24.0715C49.586 24.0715 49.8238 24.429 50.1211 24.6673C49.8238 24.5482 49.4076 24.3694 49.2293 24.3098H49.1698C49.1104 24.3098 49.3482 24.6673 49.6455 24.9653C49.3482 24.7865 48.932 24.5482 48.7536 24.4886L48.6347 24.429L48.8725 24.9057C48.6347 24.7865 48.278 24.6077 48.0996 24.5482L47.9807 24.4886C47.9807 24.4886 48.0996 24.8461 48.3374 25.0844C48.2185 25.0248 47.9807 24.9057 47.8023 24.7865L47.3267 24.429C47.3267 24.429 47.3861 24.7269 47.5645 24.9653C44.889 24.1311 44.2944 20.6156 44.235 20.1985C44.0566 18.8876 43.8782 18.113 43.2837 16.7425C42.927 15.9084 42.4513 14.7762 42.2729 13.4654C42.0946 11.9758 42.2729 11.0224 42.4513 9.53277C42.5702 8.639 42.6297 6.55353 42.808 5.77892C43.2837 7.92398 42.8675 8.46024 43.4026 8.81775C43.8188 4.88515 44.8295 9.53277 47.5051 9.47319C47.9807 9.4136 48.6942 9.23485 48.9914 9.29443C49.0509 9.29443 49.1698 9.29443 49.2887 9.35402C49.1104 9.4136 48.9914 9.4136 48.9914 9.4136L49.4671 9.77111C49.2293 9.8307 49.1104 9.94987 49.1104 9.94987C49.1104 9.94987 49.3482 10.1286 49.586 10.2478L49.1104 10.367C49.1104 10.367 49.3482 10.5457 49.5266 10.7245C49.2293 10.7841 48.9914 10.8436 49.0509 10.8436L49.5266 11.2011C49.2887 11.2607 49.1698 11.3799 49.1698 11.3799C49.1698 11.3799 49.4076 11.5587 49.6455 11.6778C49.5265 11.9162 49.3482 11.9758 49.3482 11.9758L49.8238 12.3333C49.586 12.3928 49.3482 12.512 49.4076 12.512C49.4076 12.512 49.7049 12.6908 49.9427 12.8099C49.7644 12.9291 49.6455 12.9887 49.6455 12.9887L50.1211 13.227C49.9427 13.3462 49.8238 13.4058 49.8238 13.4058C49.8238 13.4058 50.1211 13.525 50.3589 13.6441C50.0616 13.7037 49.8833 13.8229 49.8833 13.8229L50.4778 14.0612C50.1806 14.1804 49.9427 14.2996 49.9427 14.2996C49.9427 14.2996 50.1806 14.4783 50.4778 14.5975L50.0022 14.7167C50.0022 14.7167 50.1806 14.8954 50.4184 15.0742H50.3589ZM45.4241 21.271C45.4836 21.5093 45.4836 19.7218 47.3267 19.1855C48.8725 18.8876 50.1806 19.2451 51.4886 21.1518C50.7751 17.9938 48.278 17.8151 47.3861 18.0534C46.7321 18.2322 44.8295 18.7684 45.4241 21.271ZM65.1634 10.2478L65.2229 10.4265C65.2229 10.4265 64.6283 11.2011 63.6176 11.2607C62.7852 11.2607 62.5474 10.5457 62.5474 10.5457C63.2014 9.71153 63.4392 7.56647 63.3798 6.49394C63.3798 6.49394 64.0338 7.74522 64.0338 8.34107C64.0338 8.75817 64.0932 9.05609 64.3311 9.17526C64.1527 9.35402 64.0338 9.53277 64.0338 9.53277H64.45C64.2716 9.71153 64.0932 9.94987 64.0338 10.0095C63.9743 10.069 64.2121 10.069 64.45 10.0095C64.2716 10.1882 64.1527 10.367 64.0932 10.4861C64.0338 10.4861 64.8067 10.4861 65.1634 10.2478ZM35.6139 21.3902H35.1977L35.7923 21.8668L35.1977 21.986C35.1977 21.986 35.5544 22.3435 35.8517 22.5223H35.1382C35.1382 22.5223 35.4355 22.7606 35.7923 22.999C35.3761 22.9394 35.0193 22.9394 35.0193 22.8798C35.0193 22.8798 35.3166 23.1777 35.6733 23.416C35.3166 23.3565 34.9004 23.2969 34.9599 23.2969C34.9599 23.2969 35.1382 23.6544 35.4355 23.9523C35.1382 23.8331 34.7815 23.6544 34.7815 23.6544C34.7815 23.6544 34.9599 24.0119 35.1977 24.3098C34.9004 24.1907 34.4842 24.0119 34.4842 24.0119C34.4842 24.0119 34.6626 24.429 34.9004 24.6673C34.5437 24.4886 34.1869 24.3694 34.1869 24.3694C34.1869 24.3694 34.3653 24.7269 34.6031 25.0248C34.2464 24.8461 33.8302 24.7269 33.8302 24.7269C33.8302 24.7269 34.1275 25.2036 34.4248 25.5015C34.0086 25.3228 33.414 25.0248 33.414 25.0248C33.3546 25.0248 33.5329 25.3228 33.7708 25.6207L32.9384 25.2632C32.8789 25.2632 33.1167 25.6207 33.414 25.9186C32.9978 25.7399 32.4627 25.5015 32.4627 25.5015C32.4627 25.5015 32.7005 25.9186 32.9384 26.157C32.5222 25.9186 31.9871 25.6207 31.9276 25.6207L32.1654 26.0974C31.8087 25.9186 31.2736 25.6803 31.2736 25.6803C31.2736 25.6803 31.3925 26.0378 31.6303 26.2761C31.2736 26.0974 30.6196 25.6803 30.6196 25.6803C30.5601 25.6803 30.679 25.9782 30.9169 26.2761C30.798 26.2165 30.6196 26.157 30.5007 26.0378C28.4197 24.6077 28.1819 23.4161 27.1712 20.7943C25.4469 16.2659 25.6253 14.7762 25.7442 14.2996V14.1804C25.6848 14.1208 25.6848 14.0016 25.7442 13.8825C25.8631 13.2866 26.2793 12.7504 26.755 12.3333C27.6468 11.4395 28.9548 10.9032 29.9656 10.8436H30.025C31.2736 10.5457 32.6411 10.0095 33.1167 8.34107C33.2357 9.53277 32.5222 10.7841 31.6898 11.082C32.8195 10.7245 33.2357 10.4265 33.5329 9.53277C33.6518 10.367 32.9384 11.2607 32.5816 11.4991C33.3546 11.2607 33.7708 10.7841 33.7708 10.7841C33.7708 10.7841 33.7113 11.4991 33.1167 11.9758C34.1275 12.9887 32.8195 14.3591 32.9384 14.4783C32.9384 14.4783 33.1762 14.5975 33.4735 14.7167C33.2356 14.8358 33.0573 14.955 33.0573 14.955C33.0573 14.955 33.3546 15.0742 33.6518 15.1338C33.4735 15.2529 33.3546 15.4317 33.3546 15.4317L33.8302 15.5508C33.5924 15.67 33.4735 15.8488 33.4735 15.8488C33.4735 15.8488 33.7113 15.9084 34.0086 15.9679C33.7708 16.0871 33.5924 16.2063 33.6518 16.2659C33.6518 16.2063 33.9491 16.3254 34.2464 16.4446C34.068 16.6234 33.8897 16.7425 33.8897 16.7425C33.8897 16.7425 34.2464 16.8617 34.5437 16.9213C34.2464 17.0405 34.068 17.2192 34.068 17.2192L34.6626 17.4576C34.4248 17.5767 34.2464 17.8151 34.2464 17.7555C34.2464 17.7555 34.4842 17.8151 34.7815 17.9342C34.6626 18.113 34.5437 18.2322 34.5437 18.2322C34.5437 18.2322 34.841 18.3513 35.0788 18.3513C34.841 18.4705 34.6626 18.5897 34.722 18.5897C34.722 18.5897 35.0193 18.7684 35.3166 18.8876C35.0193 19.0068 34.841 19.1259 34.841 19.1259C34.841 19.1259 35.0788 19.2451 35.3761 19.4239C35.0788 19.4834 34.9004 19.6026 34.9004 19.6026C34.9004 19.6026 35.1977 19.7218 35.495 19.9005L35.0193 20.1389C35.0193 20.1389 35.2571 20.3176 35.495 20.4368C35.2571 20.4964 35.0788 20.6156 35.0788 20.6156C35.0788 20.6156 35.2571 20.7943 35.495 20.9731H35.1382C35.1977 20.9731 35.4355 21.2114 35.6139 21.3902ZM26.9333 15.3125C26.9333 15.3125 27.7657 14.1804 29.8467 14.0016C29.0143 13.525 27.0522 14.1804 26.9333 15.3125ZM29.371 23.2373C29.371 23.2373 29.4899 21.5689 30.2629 20.7943C30.8574 20.2581 32.2844 19.6622 34.3653 21.1518C33.414 19.543 31.3925 18.7684 30.025 19.841C29.0737 20.556 28.8359 22.2839 29.371 23.2373ZM27.0522 16.5638C27.0522 16.5638 28.2414 14.955 31.2736 14.6571C30.0845 14.0016 27.2306 14.955 27.0522 16.5638ZM32.4033 6.19602C33.1167 5.89809 34.6626 6.19602 35.2571 6.91104C34.2464 6.61311 33.4735 6.79187 33.1167 7.32813C33.0573 6.85145 33.414 6.43436 33.4735 6.43436C33.2951 6.2556 32.4033 6.19602 32.4033 6.19602ZM24.7335 18.7684C24.8524 18.828 24.9713 18.8876 25.1497 18.9472H24.7335C24.7335 18.9472 24.9713 19.0664 25.2686 19.2451C25.0902 19.2451 24.9713 19.3047 24.9713 19.3047C24.9713 19.3047 25.2091 19.4834 25.3875 19.6026H25.0307C25.0307 19.6026 25.328 19.7814 25.5658 19.9601H25.1497L25.6253 20.1985C25.4469 20.1985 25.2686 20.2581 25.2686 20.2581C25.2686 20.2581 25.5064 20.4368 25.7442 20.556H25.3875L25.8631 20.9135C25.6253 20.8539 25.3875 20.9135 25.3875 20.8539C25.3875 20.8539 25.5658 20.9731 25.8037 21.1518C25.5658 21.1518 25.3875 21.2114 25.3875 21.2114C25.3875 21.2114 25.6253 21.4498 25.8631 21.5689C25.5658 21.5689 25.3875 21.5689 25.3875 21.5093C25.3875 21.5093 25.6848 21.7477 25.982 21.9264C25.6253 21.8668 25.328 21.8073 25.328 21.8073C25.328 21.8073 25.6848 22.1648 26.101 22.3435C25.7442 22.2244 25.2686 22.1052 25.2686 22.1052L25.8037 22.6414C25.4469 22.5223 25.0902 22.4031 25.0902 22.3435C25.0902 22.3435 25.2686 22.6414 25.5658 22.8798C25.2091 22.7606 24.9118 22.701 24.9118 22.6414C24.9118 22.6414 25.1497 22.9394 25.4469 23.1777C25.0902 23.0585 24.674 22.8798 24.674 22.8798C24.674 22.8798 24.8524 23.1777 25.0902 23.416C24.7335 23.2969 24.3173 23.1777 24.3173 23.1777C24.3173 23.1777 24.5551 23.4756 24.7929 23.714C24.4362 23.5352 23.9605 23.3565 23.9605 23.3565C23.9605 23.3565 24.0795 23.5948 24.2578 23.7736C23.9011 23.6544 23.5443 23.5352 23.5443 23.4756C23.4849 23.4756 23.6038 23.6544 23.7227 23.7736C23.4254 23.6544 23.0687 23.5352 23.0092 23.4756C23.0092 23.4756 23.0687 23.6544 23.2471 23.8331C22.9498 23.714 22.5931 23.5948 22.5336 23.5352C22.5336 23.5352 22.5931 23.6544 22.712 23.8331C22.4147 23.714 22.1174 23.5352 22.1174 23.5352C22.1174 23.5352 22.1174 23.5948 22.1769 23.714C20.4526 22.9394 19.5608 20.7943 19.6797 19.0068C19.6797 19.0068 19.7986 19.841 20.1554 20.0793C20.0959 19.1259 20.5716 18.3513 20.8688 18.113C20.3932 19.1259 20.9283 20.4964 20.9283 20.4964C21.6418 18.6493 23.8416 17.9342 24.7335 18.1726C23.9011 18.2322 22.5336 18.6493 21.7012 19.841C22.5931 19.1855 23.9011 18.828 24.7335 18.7684ZM46.1376 47.1904C47.0889 46.9521 47.3861 48.978 47.3861 48.978C47.3861 48.978 47.624 50.2293 48.2185 53.0297C48.6347 55.3536 48.5753 56.3069 47.6834 55.1748C46.7321 54.0427 45.7214 48.1438 46.1376 47.1904ZM40.846 44.0324C40.846 44.2112 44.0566 43.8537 44.4133 42.1853C44.7106 40.8148 43.4621 39.0273 43.3431 39.1465C43.4026 39.3252 44.1161 41.649 43.3431 42.4832C42.808 43.0791 40.846 43.8537 40.846 44.0324ZM54.5208 54.1619C54.5208 53.9235 54.3425 53.8043 54.4019 53.8043C54.4019 53.8043 54.3425 53.9831 54.2236 54.1023C54.283 53.8639 54.1641 53.6852 54.1641 53.7448C54.1641 53.7448 54.1046 53.8639 53.9857 54.0427C54.0452 53.8043 53.9857 53.6256 53.9857 53.6256L53.6885 53.9235C53.8668 53.6852 53.7479 53.4468 53.8074 53.5064C53.8074 53.5064 53.6885 53.6256 53.3912 53.8043C53.629 53.566 53.5695 53.3277 53.5695 53.3872C53.5695 53.3872 53.3912 53.5064 53.0939 53.6852C53.3317 53.4468 53.2723 53.2085 53.2723 53.2085C53.2723 53.2085 53.0939 53.3277 52.7966 53.5064C53.0344 53.2681 53.0939 53.0297 53.0939 53.0297C53.0344 53.0297 52.8561 53.2085 52.4993 53.3277H52.4399C52.8561 53.2085 52.7966 52.851 52.7966 52.9106C52.7966 52.9106 52.6183 53.0297 52.321 53.0893H52.0831C52.4399 52.9702 52.4993 52.7318 52.4993 52.7318C52.4993 52.7318 52.2615 52.851 51.8453 52.851C52.1426 52.7318 52.2021 52.5531 52.2021 52.5531C52.2021 52.5531 51.9642 52.6126 51.548 52.6126C51.7859 52.5531 51.9048 52.3147 51.9048 52.3147C51.9048 52.3147 51.667 52.3743 51.3697 52.3743C51.6075 52.3147 51.7264 52.136 51.667 52.136C51.667 52.136 51.4886 52.1956 51.1319 52.0764C51.3697 52.0168 51.4886 51.838 51.4886 51.838C51.4886 51.838 51.2508 51.838 50.9535 51.7785L50.894 51.7189C51.1319 51.7189 51.3102 51.5401 51.2508 51.5401C51.2508 51.5401 51.0129 51.5997 50.7157 51.4805C50.9535 51.421 51.0724 51.3018 51.0724 51.3018C51.0724 51.3018 50.894 51.3018 50.5968 51.2422V51.1826C50.894 51.1826 51.0129 51.0634 51.0129 51.0634C51.0129 51.0634 50.7751 51.0634 50.5373 50.8847V50.8251C50.8346 50.9443 51.0129 50.8251 51.0129 50.8251C51.0129 50.8251 50.7751 50.7655 50.4778 50.4676C50.7157 50.5868 50.9535 50.4676 50.894 50.4676C50.894 50.4676 50.7157 50.3484 50.4184 50.1101C50.6562 50.2293 50.894 50.1697 50.894 50.1101C50.894 50.1101 50.7157 49.9909 50.4184 49.6334C50.6562 49.8122 50.894 49.7526 50.894 49.7526C50.894 49.7526 50.7157 49.6334 50.4778 49.2759C50.7157 49.4546 51.0129 49.3951 50.9535 49.3951C50.9535 49.3951 50.7751 49.2759 50.5373 48.8588C50.7751 49.0971 51.0724 49.0376 51.0129 49.0376C51.0129 49.0376 50.8346 48.9184 50.5968 48.5609C50.8346 48.7992 51.0724 48.7396 51.0724 48.7396C51.0724 48.7396 50.894 48.6205 50.6562 48.2034C50.894 48.5013 51.1913 48.5013 51.1913 48.4417C51.1913 48.4417 51.0129 48.263 50.7751 47.8459C50.9535 48.2034 51.3102 48.2034 51.2508 48.1438C51.2508 48.1438 51.0724 47.965 50.9535 47.5479L50.894 47.4883C51.0724 47.9054 51.4291 47.8459 51.3697 47.8459C51.3697 47.8459 51.2508 47.6075 51.1319 47.3096V47.1904C51.3102 47.5479 51.6075 47.6075 51.548 47.6075C51.548 47.6075 51.3697 47.3692 51.3697 46.9521C51.4886 47.1904 51.7264 47.3692 51.7264 47.3692C51.7264 47.3692 51.6075 47.0713 51.667 46.7733L51.7264 46.7137C51.7264 46.8925 51.7859 47.0117 51.8453 47.0713C52.0237 46.7137 52.321 46.535 52.6777 46.4754C53.3912 46.4158 54.2236 46.5946 54.8776 46.9521C55.4721 47.25 56.0072 47.7267 56.6018 48.263V47.9054C56.7802 48.0246 56.8991 48.0842 56.8991 48.0842C56.8991 48.0842 56.8991 47.9054 56.6613 47.6671C56.8991 47.7863 57.018 47.7863 57.018 47.7863C57.018 47.7863 56.9585 47.6075 56.6018 47.3692C56.7802 47.3692 56.8991 47.25 56.8991 47.3096C56.8991 47.3096 56.7802 47.1904 56.4829 47.1308C56.6612 47.0713 56.7802 46.9521 56.7802 46.9521C56.7802 46.9521 56.6018 46.8925 56.1856 46.8329C56.4829 46.8329 56.6018 46.6542 56.6018 46.6542C56.6018 46.6542 56.4234 46.6542 56.0072 46.535C56.364 46.535 56.4829 46.2966 56.4829 46.2966C56.4829 46.2966 56.3045 46.3562 55.8883 46.2371C56.1856 46.1775 56.3045 45.9987 56.3045 45.9987C56.3045 45.9987 56.1261 46.0583 55.7694 45.9987C56.0072 45.8796 56.0667 45.7008 56.0667 45.7008C56.0667 45.7008 55.8883 45.7604 55.4721 45.82C55.7694 45.7008 55.8289 45.4029 55.8289 45.4625C55.8289 45.4625 55.6505 45.5816 55.2343 45.6412C55.4721 45.4625 55.5316 45.2837 55.5316 45.2837C55.5316 45.2837 55.3532 45.4029 54.937 45.4625C55.2343 45.3433 55.2343 45.1049 55.2343 45.1049L54.6992 45.2837C54.937 45.1049 54.937 44.8666 54.937 44.9262C54.937 44.9262 54.8181 45.0454 54.4019 45.1645C54.6992 44.9858 54.6398 44.7474 54.6398 44.7474C54.6398 44.7474 54.4614 44.8666 54.1046 44.9858C54.283 44.807 54.283 44.6283 54.283 44.6283C54.283 44.6283 54.1641 44.7474 53.8668 44.8666C54.1046 44.6879 54.1046 44.4495 54.0452 44.5091C54.0452 44.5091 53.9263 44.6283 53.5695 44.7474C53.8074 44.5091 53.7479 44.3303 53.7479 44.3303C53.7479 44.3303 53.629 44.4495 53.2723 44.5687C53.629 44.2112 53.8668 43.3174 53.6885 42.8407C53.5101 43.377 53.1534 43.8537 52.9155 44.092C53.2128 43.5557 53.0344 43.3174 53.0344 43.3174C53.0344 43.3174 52.975 43.4962 52.6777 43.9132L52.6183 43.9728C52.975 42.9003 52.6777 40.8148 52.1426 40.3382C52.2615 42.7811 51.7264 43.6153 51.667 43.6749C51.667 43.4962 51.6075 43.377 51.6075 43.377C51.6075 43.377 51.548 43.5557 51.3697 43.9132C51.3697 43.9728 51.3102 43.9728 51.3102 44.0324C51.3697 43.7941 51.2508 43.6749 51.2508 43.6749C51.2508 43.6749 51.1913 43.8537 50.9535 44.2708C51.0129 44.0324 50.894 43.8537 50.894 43.8537C50.894 43.8537 50.8346 44.0324 50.6562 44.3899C50.6562 44.4495 50.5968 44.5091 50.5373 44.5687C50.6562 44.2112 50.4778 44.0324 50.5373 44.0324C50.5373 44.0324 50.4778 44.2112 50.2995 44.5687C50.2995 44.6283 50.24 44.6879 50.1806 44.7474H50.1211C50.24 44.4495 50.1211 44.2112 50.1211 44.2112C50.1211 44.2112 50.0617 44.3899 49.8238 44.7474C49.7644 44.807 49.7644 44.8666 49.7049 44.9262C49.8833 44.6283 49.7644 44.3899 49.7644 44.3899C49.7644 44.3899 49.7049 44.5687 49.4076 44.8666C49.3482 44.9262 49.3482 44.9858 49.2887 45.0454C49.4671 44.7474 49.3482 44.5091 49.3482 44.5091C49.3482 44.5091 49.2887 44.6879 48.9914 44.9858L48.8131 45.1645C49.0509 44.807 48.932 44.5687 48.932 44.5687C48.932 44.5687 48.8725 44.7474 48.5753 45.0454C48.5158 45.1049 48.4563 45.2241 48.3374 45.2837C48.6347 44.9262 48.4563 44.6283 48.4563 44.6879C48.4563 44.6879 48.3969 44.8666 48.0996 45.1645C48.0402 45.2241 47.9807 45.3433 47.9212 45.4029C48.2185 45.1049 48.0996 44.807 48.0996 44.807C48.0996 44.807 47.9807 44.9858 47.6834 45.2837L47.5051 45.4625C47.6834 45.1645 47.624 44.9858 47.624 44.9858C47.624 44.9858 47.5051 45.1645 47.2078 45.4625L47.0889 45.5816C47.3267 45.2837 47.2672 45.0454 47.2078 45.0454C47.2078 45.0454 47.0889 45.2241 46.7916 45.4625L46.6727 45.5816C46.9105 45.2837 46.851 45.0454 46.851 45.0454C46.851 45.0454 46.7321 45.2241 46.4348 45.4625C46.3754 45.522 46.3159 45.5816 46.2565 45.5816C46.4943 45.2837 46.3754 45.0454 46.3754 45.0454C46.3754 45.0454 46.2565 45.2241 45.9592 45.4625C45.8997 45.522 45.8997 45.5816 45.8403 45.5816C46.0781 45.3433 46.0187 45.1049 46.0187 45.1049C46.0187 45.1049 45.8997 45.2837 45.543 45.4625C45.4836 45.522 45.4241 45.5816 45.3052 45.5816C45.543 45.3433 45.4836 45.1049 45.4836 45.1049C45.4836 45.1049 45.3646 45.2837 45.0079 45.4625C44.9484 45.522 44.889 45.522 44.8295 45.5816C45.0674 45.3433 45.0674 45.1049 45.0674 45.1049C45.0674 45.1049 44.9484 45.2241 44.5917 45.4625C44.5323 45.522 44.4728 45.522 44.4133 45.5816C44.6512 45.3433 44.5917 45.1049 44.5917 45.1049C44.5917 45.1049 44.4728 45.2837 44.1161 45.4625L43.9972 45.5816H43.9377C44.1755 45.3433 44.1161 45.1049 44.1161 45.1049C44.1161 45.1049 43.9972 45.2241 43.6404 45.4625L43.5215 45.5816C43.7593 45.3433 43.7593 45.1049 43.7593 45.1049C43.7593 45.1049 43.6404 45.2241 43.2242 45.4029C43.1648 45.4625 43.1053 45.4625 42.9864 45.522C43.2242 45.2837 43.2242 45.1049 43.2242 45.1049C43.2242 45.1049 43.1053 45.2241 42.6891 45.4029C42.6297 45.4625 42.5702 45.4625 42.5108 45.522C42.808 45.3433 42.808 45.0454 42.808 45.0454C42.808 45.0454 42.6891 45.1645 42.2729 45.3433C42.2135 45.4029 42.0946 45.4029 41.9757 45.4625C42.2729 45.2837 42.2729 44.9858 42.2729 45.0454C42.2729 45.0454 42.0946 45.1645 41.6784 45.3433C41.6189 45.4029 41.5 45.4029 41.3811 45.4625C41.6784 45.2837 41.7378 45.1049 41.7378 45.1049C41.7378 45.1049 41.5595 45.2241 41.0838 45.2837H40.9055C40.9649 45.2241 41.0838 45.1645 41.0838 45.1049C40.0136 45.1645 39.3001 44.6283 39.0029 44.3899C37.9327 43.4962 37.3976 42.3045 37.3976 41.5894C37.457 40.5765 38.1705 39.504 39.1812 39.3252C40.2514 39.0869 43.9972 38.5506 45.6025 37.8356C47.2078 37.1206 50.24 35.7501 51.7264 35.333C53.0939 34.9159 54.8776 35.0351 58.0882 37.0014C58.0882 37.0014 62.3096 39.3252 63.9743 40.0402C64.5689 40.2786 65.0445 40.7553 65.4013 41.2319C65.2229 41.1723 65.0445 41.1128 65.0445 41.1723C65.0445 41.1723 65.1634 41.4107 65.5202 41.7682C65.2823 41.649 65.104 41.649 65.104 41.649C65.104 41.649 65.2229 41.8278 65.4607 42.1257C65.2823 42.0661 65.1634 42.1257 65.1634 42.1257C65.1634 42.1257 65.3418 42.3045 65.6985 42.5428C65.4013 42.364 65.1634 42.4236 65.1634 42.4236L65.6391 42.9003C65.3418 42.8407 65.1634 42.9003 65.1634 42.9003C65.1634 42.9003 65.4013 43.1386 65.8174 43.4366C65.4607 43.1982 65.104 43.2578 65.104 43.2578C65.104 43.2578 65.2823 43.4962 65.6391 43.7941C65.3418 43.6749 65.104 43.7345 65.104 43.7345C65.104 43.7345 65.2823 43.9728 65.6391 44.2112C65.2823 44.092 65.0445 44.1516 65.0445 44.1516C65.0445 44.1516 65.2229 44.2708 65.4607 44.5091C65.2229 44.4495 65.0445 44.5091 65.0445 44.5091C65.0445 44.5091 65.2229 44.7474 65.4607 44.9858C65.1634 44.8666 64.9851 44.9262 64.9851 44.9262C64.9851 44.9262 65.1634 45.1645 65.5202 45.4029C65.1634 45.2241 64.9256 45.3433 64.9851 45.2837C64.9851 45.2837 65.2229 45.522 65.6391 45.82L65.8174 45.9987C65.4013 45.5816 64.9851 45.7008 64.9851 45.7008C64.9851 45.7008 65.2229 45.9391 65.6391 46.2966C65.2229 45.9987 64.9256 46.0583 64.9256 46.0583C64.9256 46.0583 65.1634 46.2966 65.5202 46.7137L65.5796 46.7733C65.1634 46.4158 64.8067 46.535 64.8067 46.535L65.4013 47.1308C65.0445 46.8925 64.7472 46.9521 64.7472 46.9521C64.7472 46.9521 64.9256 47.1308 65.2823 47.4288C64.9256 47.1904 64.6878 47.25 64.6878 47.25C64.6878 47.25 64.9256 47.4883 65.2229 47.8459C64.8662 47.6075 64.5689 47.6075 64.5689 47.6075C64.5689 47.6075 64.7472 47.7863 64.9851 48.0842C64.6878 47.9054 64.45 47.965 64.45 47.965L64.9256 48.4417C64.5689 48.2034 64.3311 48.263 64.3311 48.263C64.3311 48.263 64.5689 48.5013 64.8662 48.8588C64.5094 48.5609 64.2121 48.6205 64.2716 48.6205C64.2716 48.6205 64.5094 48.9184 64.8067 49.3355C64.5094 48.9184 64.1527 48.9184 64.1527 48.9184L64.45 49.5142C64.2121 49.3355 64.0338 49.3355 64.0338 49.3355C64.0338 49.3355 64.2121 49.6334 64.5094 50.0505C64.2121 49.693 63.9149 49.693 63.9149 49.693C63.9149 49.693 64.0338 49.9909 64.2716 50.408C64.0338 50.0505 63.7365 49.9909 63.7365 49.9909C63.7365 49.9909 63.7959 50.2888 64.0338 50.7059C63.7959 50.408 63.4987 50.408 63.4987 50.408C63.4987 50.408 63.5581 50.6463 63.7365 51.0039C63.4987 50.7655 63.3203 50.7655 63.3203 50.7655C63.3203 50.7655 63.3798 51.0039 63.4987 51.3614C63.2608 51.123 63.0825 51.0634 63.0825 51.0634C63.0825 51.0634 63.1419 51.3614 63.2608 51.7785C63.0825 51.4805 62.7852 51.421 62.8447 51.421C62.8447 51.421 62.9041 51.6593 62.9636 52.0764C62.7852 51.7189 62.5474 51.6593 62.5474 51.6593C62.5474 51.6593 62.6068 51.8976 62.6663 52.3147C62.5474 52.0168 62.3096 51.8976 62.3096 51.8976V52.4935C62.1906 52.2551 62.0123 52.136 62.0123 52.136V52.7914C61.8934 52.4339 61.715 52.3147 61.715 52.3147C61.715 52.3147 61.715 52.4935 61.6555 52.7914C61.5961 52.4935 61.4177 52.3743 61.4177 52.3743C61.4177 52.3743 61.3583 52.6126 61.2988 53.0297C61.2393 52.6722 61.0015 52.5531 61.0015 52.5531C61.0015 52.5531 60.9421 52.7914 60.9421 53.1489C60.8826 52.7914 60.7042 52.6722 60.7042 52.6722C60.7042 52.6722 60.6448 52.9106 60.5853 53.2085C60.5853 52.9106 60.4664 52.7318 60.4664 52.7318C60.4664 52.7318 60.3475 52.9106 60.2881 53.1489C60.2881 52.9106 60.1691 52.7914 60.1691 52.7914C60.1691 52.7914 60.0502 52.9702 59.8719 53.3277C59.9313 53.0297 59.8124 52.7914 59.8124 52.851C59.8124 52.851 59.6935 53.0297 59.5746 53.2681C59.5746 52.9702 59.5151 52.7914 59.5151 52.7914C59.5151 52.7914 59.3962 52.9106 59.2773 53.1489C59.2773 52.851 59.2178 52.6722 59.2178 52.6722C59.2178 52.6722 59.0989 52.7914 58.98 53.0297C59.0395 52.7914 58.9206 52.6126 58.98 52.6126C58.98 52.6126 58.8611 52.7914 58.6827 53.0297C58.8017 52.7318 58.7422 52.5531 58.7422 52.5531L58.3855 52.9106C58.5044 52.6722 58.4449 52.4339 58.4449 52.4339C58.4449 52.4339 58.2666 52.5531 58.0287 52.7318C58.1476 52.4935 58.0882 52.3147 58.0882 52.3147C58.0882 52.3147 57.9098 52.4339 57.7315 52.6126C57.8504 52.3743 57.7909 52.1956 57.8504 52.1956C57.8504 52.1956 57.7315 52.2551 57.5531 52.4339C57.6125 52.2551 57.6125 52.0764 57.6125 52.136C57.6125 52.136 57.4936 52.1956 57.3747 52.3147C57.4342 52.136 57.4342 51.9572 57.4342 52.0168L57.1964 52.136C57.2558 51.9572 57.2558 51.838 57.2558 51.838C57.2558 51.838 57.1964 51.8976 57.0774 51.9572C57.1369 51.838 57.1369 51.7189 57.1369 51.7189C57.1369 51.7189 57.018 51.7189 56.8991 51.7785L57.018 51.6593C57.018 51.6593 56.6612 51.5997 56.1856 51.838C56.0667 51.8976 56.0072 51.8976 55.9478 51.9572C55.5316 52.1956 55.1154 52.6722 55.1749 53.566C55.1749 53.566 55.1749 53.9235 54.937 54.1023C54.937 53.9235 54.8181 53.8043 54.8181 53.8043C54.6397 53.8639 54.6397 53.9831 54.5208 54.1619ZM37.457 44.3303C37.7543 44.807 38.1705 45.2241 38.765 45.6412C41.0244 46.8925 43.2242 46.8925 44.235 46.8925C44.3539 47.0713 44.7106 47.4883 45.0079 47.5479C44.6512 47.4288 44.1755 47.3096 44.1755 47.3096C44.1161 47.3096 44.5917 47.965 45.0079 48.0842C44.5917 47.965 44.1161 47.9054 44.1161 47.9054C44.1161 47.9054 44.7106 48.5609 45.1268 48.68C44.7106 48.5609 44.1161 48.4417 44.1161 48.4417C44.1161 48.4417 44.7106 49.0971 45.1268 49.2163C44.7106 49.0971 44.1161 48.978 44.1161 48.978C44.1161 48.978 44.7106 49.6334 45.1268 49.7526C44.7106 49.6334 44.1755 49.5142 44.1161 49.5142C44.1161 49.5142 44.5323 50.0505 44.9484 50.2293C44.5917 50.1697 44.1755 50.0505 44.1755 50.0505C44.1755 50.0505 44.5323 50.4676 44.9484 50.7059C44.5323 50.5868 44.1755 50.5272 44.1755 50.5272C44.1755 50.5272 44.7106 51.123 45.1863 51.3018L44.235 50.9443C44.235 50.9443 44.5917 51.3614 45.0079 51.6593C44.5917 51.4805 44.235 51.3018 44.235 51.3018C44.235 51.3018 44.7106 51.8976 45.1863 52.2551L44.235 51.7785C44.235 51.7785 44.7106 52.4339 45.1863 52.7914C44.7106 52.5531 44.2944 52.3743 44.2944 52.3147C44.2944 52.3147 44.6512 52.7914 45.0674 53.1489L44.3539 52.7914C44.3539 52.7914 44.9485 53.566 45.4241 53.8639C44.889 53.6256 44.3539 53.3873 44.3539 53.3277C44.2944 53.3277 44.9484 54.1023 45.4836 54.4002C44.9484 54.1619 44.4133 53.9235 44.4133 53.8639C44.4133 53.8639 45.0079 54.5789 45.4836 54.9365C44.9484 54.6981 44.4728 54.4598 44.4728 54.4598C44.4133 54.4598 44.9484 55.1152 45.4836 55.4727C45.0674 55.4131 44.5917 55.2344 44.5917 55.2344C44.5917 55.2344 45.3052 56.009 45.8997 56.3069C45.3646 56.1282 44.7701 55.9494 44.7701 55.8898C44.7701 55.8898 45.4836 56.6048 46.0781 56.8432C45.4836 56.6644 44.7701 56.3665 44.7701 56.3665C44.7701 56.3665 45.1863 56.8432 45.7214 57.1411C45.3052 57.0219 44.8295 56.8432 44.8295 56.7836C44.7701 56.7836 45.1863 57.2603 45.6025 57.5582L45.543 57.6178C45.1268 57.439 44.7106 57.0815 44.7106 57.0815C44.6512 57.0815 44.8295 57.4986 45.0674 57.8561C44.7106 57.6178 44.3539 57.2007 44.3539 57.2007C44.2944 57.2007 44.3539 57.6178 44.5917 57.9753C44.2944 57.7965 43.9377 57.3199 43.9972 57.2603C43.9377 57.2603 43.9377 57.6774 44.1161 58.0349C43.8188 57.7965 43.581 57.2603 43.581 57.2603C43.5215 57.2603 43.4621 57.6178 43.581 57.9753C43.4026 57.6774 43.2837 57.3199 43.2837 57.3199C43.2837 57.3199 43.2242 57.6178 43.2242 57.9753C42.9864 57.6774 42.808 57.3794 42.808 57.3199C42.7486 57.3199 42.7486 57.7369 42.8675 58.0945C42.5702 57.7965 42.3918 57.3794 42.3918 57.3199C42.3324 57.3199 42.3324 57.6774 42.3918 58.0349C42.0946 57.6774 41.8567 57.3199 41.9162 57.2603C41.8567 57.2603 41.9162 57.6178 42.0351 58.0349C41.7973 57.6774 41.5595 57.2603 41.5595 57.2007C41.5 57.2007 41.5 57.5582 41.5595 57.9753C41.3216 57.6178 41.1433 57.2007 41.1433 57.1411C41.0838 57.1411 41.0838 57.4986 41.0838 57.8561C40.9055 57.4986 40.7271 57.1411 40.7865 57.1411C40.7271 57.1411 40.7271 57.4986 40.7865 57.9157C40.6082 57.4986 40.4298 57.0815 40.4893 57.0815C40.4298 57.0815 40.4298 57.3794 40.4298 57.7965C40.2514 57.439 40.1325 57.0815 40.1325 57.0815C40.0731 57.0815 40.0731 57.3794 40.0731 57.7369C39.8947 57.3794 39.7163 56.9623 39.7758 56.9623C39.7163 56.9623 39.7163 57.2603 39.7163 57.6774C39.4785 57.2603 39.3001 56.7836 39.3596 56.724C39.3596 56.724 39.3001 57.0815 39.3001 57.4986C39.1218 57.0815 39.0029 56.5452 39.0029 56.5452C39.0029 56.5452 38.884 56.8432 38.884 57.2007C38.765 56.7836 38.7056 56.3069 38.7056 56.3069C38.7056 56.3069 38.5272 56.6048 38.4678 57.0219C38.3489 56.5452 38.2894 56.0686 38.3489 56.0686C38.3489 56.0686 38.1705 56.3665 38.111 56.7836C38.0516 56.3069 37.9921 55.6515 37.9921 55.6515C37.9921 55.6515 37.8137 55.9494 37.6948 56.3665C37.6354 55.8302 37.5759 55.1152 37.5759 55.1152C37.5759 55.1152 37.3381 55.5323 37.2192 55.9494C37.1597 55.4131 37.1597 54.6385 37.1597 54.6385C37.1597 54.6385 36.9814 54.8769 36.8625 55.2344V54.281C36.8625 54.281 36.6841 54.5789 36.5057 54.9365C36.5057 54.4002 36.5652 53.6256 36.5652 53.6256C36.5652 53.6256 36.3274 53.9235 36.149 54.281C36.0895 53.7448 36.2084 53.1489 36.2679 53.1489C36.2679 53.0893 36.0895 53.3872 35.9112 53.6852C35.8517 53.1489 35.9706 52.4935 35.9706 52.4935C35.9706 52.4339 35.7328 52.7914 35.5544 53.2085C35.5544 52.6722 35.6139 51.8976 35.6139 51.8976C35.6139 51.8976 35.3166 52.3147 35.1382 52.7914V52.5531C35.0788 52.136 35.2571 51.421 35.3166 51.421C35.3166 51.3614 34.9599 51.6593 34.7815 52.0168C34.7815 51.9572 34.7815 51.8976 34.841 51.8976C34.841 51.5401 35.0193 50.8847 35.0788 50.8847C35.0788 50.8847 34.6031 51.1826 34.4248 51.5401C34.4248 51.4805 34.4842 51.4805 34.4842 51.421C34.5437 51.0634 34.7815 50.408 34.7815 50.408C34.7815 50.408 34.4248 50.6463 34.1869 50.8847C34.3059 50.5272 34.4842 49.8717 34.4842 49.8717C34.4842 49.8122 34.1275 50.0505 33.8897 50.3484C34.0086 49.9909 34.1275 49.3355 34.1869 49.3355C34.1869 49.2759 33.8302 49.5142 33.5924 49.8122C33.6518 49.5142 33.5924 48.68 33.6518 48.5013C34.841 47.6671 37.6948 46.5946 37.6948 46.5946L37.457 44.3303Z" fill="#EF7622"/>
</g>
<defs>
<clipPath id="clip0_1944_53967">
<rect width="96.4825" height="60.5917" fill="white"/>
</clipPath>
</defs>
</svg>
